<?xml version="1.0" encoding="utf-8"?>
<!-- Generator: Adobe Illustrator 26.4.1, SVG Export Plug-In . SVG Version: 6.00 Build 0)  -->
<svg version="1.1" id="Capa_1" xmlns="http://www.w3.org/2000/svg" xmlns:xlink="http://www.w3.org/1999/xlink" x="0px" y="0px"
	 viewBox="0 0 512 512" style="enable-background:new 0 0 512 512;" xml:space="preserve">
<style type="text/css">
	.st0{fill:#FFFFFF;}
</style>
<path class="st0" d="M480,256c0,123.4-100.5,223.9-223.9,223.9c-48.9,0-95.2-15.6-134.2-44.9c-14.1-10.6-17-30.7-6.4-44.8
	c10.6-14.1,30.7-17,44.8-6.4c27.8,20.9,61,31.9,95.9,31.9c88.1,0,159.8-71.7,159.8-159.8S344.3,96.2,256.2,96.2
	c-50.3,0-97.6,24.1-127.6,63.8H192c17.7,0,32,14.3,32,32s-14.3,32-32,32H48c-17.7,0-32-14.3-32-32V48c0-17.7,14.3-32,32-32
	s32,14.3,32,32v70.2c42.1-53.7,106.1-86.1,176.1-86.1C379.5,32.1,480,132.6,480,256z"/>
</svg>
