<?xml version="1.0" encoding="utf-8"?>
<!-- Generator: Adobe Illustrator 26.5.0, SVG Export Plug-In . SVG Version: 6.00 Build 0)  -->
<svg version="1.1" id="Capa_1" focusable="false" xmlns="http://www.w3.org/2000/svg" xmlns:xlink="http://www.w3.org/1999/xlink"
	 x="0px" y="0px" viewBox="0 0 512 512" style="enable-background:new 0 0 512 512;" xml:space="preserve">
<style type="text/css">
	.st0{opacity:0.7;fill:#FFFFFF;}
</style>
<path class="st0" d="M512,128v256c0,53-43,96-96,96h-72c-13.3,0-24-10.7-24-24c0-13.3,10.8-24,24-24h72c26.4,0,48-21.6,48-48V128
	c0-26.4-21.6-48-48-48h-72c-13.3,0-24-10.8-24-24c0-13.3,10.7-24,24-24h72C469,32,512,75,512,128z M367.9,273.9L215.5,407.6
	c-6.2,5.5-14.2,8.4-22.2,8.4c-4.7,0-9.4-1-13.8-3c-11.9-5.3-19.5-16.9-19.5-29.7V328H40c-22.1,0-40-17.9-40-40v-64
	c0-22.1,17.9-40,40-40h120v-55.3c0-12.8,7.6-24.4,19.4-29.7c12.1-5.4,26.3-3.3,36.1,5.4L367.9,238c5.2,4.6,8.1,11.1,8.1,18
	C376,262.9,373.1,269.4,367.9,273.9z M315.8,256L208,161.1V232H48v48h160v70L315.8,256z"/>
</svg>
