<?xml version="1.0" encoding="utf-8"?>
<!-- Generator: Adobe Illustrator 26.5.0, SVG Export Plug-In . SVG Version: 6.00 Build 0)  -->
<svg version="1.1" id="Capa_1" focusable="false" xmlns="http://www.w3.org/2000/svg" xmlns:xlink="http://www.w3.org/1999/xlink"
	 x="0px" y="0px" viewBox="0 0 512 512" style="enable-background:new 0 0 512 512;" xml:space="preserve">
<style type="text/css">
	.st0{opacity:0.7;fill:#FFFFFF;}
</style>
<path class="st0" d="M256,112c-48.6,0-88,39.4-88,88s39.4,88,88,88s88-39.4,88-88S304.6,112,256,112z M256,240
	c-22.1,0-40-17.9-40-40c0-22.1,17.9-40,40-40s40,17.9,40,40C296,222.1,278.1,240,256,240z M256,0C114.6,0,0,114.6,0,256
	s114.6,256,256,256s256-114.6,256-256S397.4,0,256,0z M256,464c-46.7,0-89.8-15.7-124.5-41.8c17.3-33.2,50.9-54.2,88.7-54.2h71.7
	c37.8,0,71.3,21,88.7,54.2C345.8,448.3,302.7,464,256,464z M416.2,388.5c-27-42.2-73-68.5-124.4-68.5h-71.6
	c-51.4,0-97.3,26.2-124.4,68.5C66,352.5,48,306.3,48,256c0-114.7,93.3-208,208-208s208,93.3,208,208
	C464,306.3,446,352.5,416.2,388.5z"/>
</svg>
