<?xml version="1.0" encoding="utf-8"?>
<!-- Generator: Adobe Illustrator 27.0.0, SVG Export Plug-In . SVG Version: 6.00 Build 0)  -->
<svg version="1.1" id="Capa_1" xmlns="http://www.w3.org/2000/svg" xmlns:xlink="http://www.w3.org/1999/xlink" x="0px" y="0px"
	 viewBox="0 0 253.4 291.9" style="enable-background:new 0 0 253.4 291.9;" xml:space="preserve">
<style type="text/css">
	.st0{fill:#FFFFFF;}
</style>
<g>
	<path class="st0" d="M105.3,125.8c-8.5-5.7-15.4-12.5-20.7-20.8c-26.5-41.4-1.5-96.7,47-104.2c38.1-5.9,73.3,20.5,78.3,58.8
		c5,37.7-22.6,72.7-60.5,76.5c-6.8,0.7-13.7,0.5-20.4,1.5c-31.7,4.8-55.1,21.6-70.3,49.7c-6.9,12.8-10.2,26.7-10.5,41.3
		c-0.1,6.8,3.2,10.1,10.1,10.1c27.6,0,55.1,0,82.7,0c6.8,0,11.2,6,8.7,11.8c-1.6,3.7-4.7,5.3-8.7,5.3c-17.9,0-35.8,0-53.7,0
		c-9.6,0-19.1,0-28.7,0c-16.6,0-27.5-10.9-27.3-27.5c0.5-44.6,29.5-85.7,71.3-101.3C103.4,126.7,104.1,126.3,105.3,125.8z
		 M90.9,68.4c-0.1,27.8,22.7,50.9,50.5,51.1c28.3,0.2,51.5-22.5,51.6-50.5c0.1-28.6-22.5-51.5-51-51.6C113.9,17.3,91,40.2,90.9,68.4
		z"/>
	<path class="st0" d="M215.1,183.4c4,0,7.7,0,11.4,0c6.1,0,12.2-0.1,18.3,0c4.9,0.1,8.6,3.9,8.6,8.6c-0.1,4.6-3.7,8.3-8.6,8.4
		c-8.9,0.1-17.7,0-26.6,0c-1,0-1.9,0-3.1,0c0,3.7,0,7.3,0,10.8c0,6,0,12.1,0,18.1c0,5.6-3.5,9.5-8.6,9.4c-5,0-8.4-3.9-8.4-9.6
		c0-9.5,0-18.9,0-28.7c-1.1,0-2.1,0-3,0c-8.7,0-17.4,0-26,0c-5.4,0-9.2-3.6-9.2-8.5c0-4.9,3.8-8.5,9.2-8.5c9.6,0,19.1,0,29.1,0
		c0-1.1,0-2,0-2.9c0-8.6,0-17.2,0-25.8c0-5.7,3.4-9.5,8.4-9.6c5.1,0,8.6,3.9,8.6,9.7C215.1,164.2,215.1,173.6,215.1,183.4z"/>
</g>
</svg>
